<svg width="13" height="20" viewBox="0 0 13 20" fill="none" xmlns="http://www.w3.org/2000/svg">
<path d="M11.0507 3.76149L11.0349 3.50675C11.0347 3.50205 11.0325 3.48849 11.032 3.48363C10.991 3.0268 10.7806 2.60184 10.4421 2.29232C10.1036 1.9828 9.66155 1.81112 9.20288 1.81104H5.80683L4.84364 0.138709C4.78897 0.0426217 4.68668 0.000241461 4.57595 0.000241461H3.45399C3.41512 -0.00136467 3.37634 0.00505526 3.34006 0.0191009C3.30378 0.0331464 3.27079 0.0545164 3.24313 0.0818779C3.21548 0.109239 3.19376 0.142005 3.17933 0.178132C3.1649 0.214259 3.15806 0.252972 3.15926 0.291856V1.85792C2.76315 1.92624 2.40074 2.12357 2.12841 2.41921C1.85609 2.71486 1.68913 3.09223 1.65352 3.49261C1.6531 3.49731 1.6494 3.50205 1.64917 3.50675L1.62775 3.76584C1.18096 3.81897 0.768965 4.03346 0.469213 4.36901C0.169462 4.70456 0.00260083 5.13804 0 5.58797V6.7102C0 6.88045 0.152839 7.01225 0.323053 7.01225H1.01424L1.55424 17.6805C1.57792 18.1502 1.78154 18.5927 2.12283 18.9163C2.46412 19.2398 2.91687 19.4195 3.38715 19.4181H9.32678C9.79707 19.4196 10.2499 19.2399 10.5912 18.9163C10.9325 18.5928 11.1361 18.1502 11.1598 17.6805L11.6998 7.01225H12.391C12.5612 7.01225 12.7141 6.88045 12.7141 6.7102V5.58797C12.7119 5.1317 12.5406 4.69244 12.2334 4.35509C11.9262 4.01775 11.5048 3.80626 11.0507 3.76149ZM4.39688 0.616682L5.09719 1.81104H3.7757V0.616682H4.39688ZM3.47414 2.42748H9.20288C9.50575 2.42656 9.79804 2.53882 10.0224 2.74224C10.2468 2.94567 10.3871 3.22558 10.4158 3.52709L10.4257 3.73741H2.25128L2.26118 3.52709C2.28987 3.22557 2.43018 2.94565 2.65457 2.74223C2.87897 2.5388 3.17127 2.42655 3.47414 2.42748ZM1.75581 9.47801H10.9583L10.6868 14.8333H2.02724L1.75581 9.47801ZM10.5441 17.6487C10.5283 17.9605 10.3931 18.2543 10.1664 18.469C9.93968 18.6837 9.63901 18.8028 9.32678 18.8017H3.38719C3.07497 18.8028 2.77432 18.6836 2.54765 18.4689C2.32098 18.2542 2.1857 17.9605 2.16991 17.6487L2.05845 15.4498H10.6556L10.5441 17.6487ZM10.9894 8.86157H1.72465L1.63145 7.01225H11.0826L10.9894 8.86157ZM12.0976 6.39581H0.61644V5.58797C0.619572 5.26169 0.750552 4.94966 0.981243 4.7189C1.21193 4.48814 1.52393 4.35708 1.85021 4.35385H10.8639C11.1902 4.35708 11.5021 4.48814 11.7328 4.7189C11.9635 4.94966 12.0945 5.26169 12.0976 5.58797V6.39581Z" fill="#B8B8B8"/>
<path d="M7.5931 10.5696C7.27124 10.1069 6.83226 9.85205 6.35706 9.85205C5.88186 9.85205 5.44288 10.1069 5.12102 10.5696C4.82286 10.9982 4.65869 11.5626 4.65869 12.1587C4.65869 12.7549 4.8229 13.3192 5.12102 13.7478C5.44288 14.2106 5.88186 14.4654 6.35706 14.4654C6.83226 14.4654 7.27124 14.2106 7.5931 13.7478C7.89127 13.3192 8.05543 12.7549 8.05543 12.1587C8.05543 11.5626 7.89127 10.9982 7.5931 10.5696ZM6.35706 13.8489C5.77056 13.8489 5.27509 13.0749 5.27509 12.1587C5.27509 11.2425 5.77056 10.4685 6.35706 10.4685C6.94357 10.4685 7.43903 11.2425 7.43903 12.1587C7.43903 13.0749 6.94357 13.8489 6.35706 13.8489Z" fill="#B8B8B8"/>
</svg>
