<svg width="22" height="22" viewBox="0 0 22 22" fill="none" xmlns="http://www.w3.org/2000/svg">
<path d="M7.79167 2.75H5.04167C4.43388 2.75 3.85098 2.99144 3.42121 3.42121C2.99144 3.85098 2.75 4.43388 2.75 5.04167C2.75 5.64945 2.99144 6.23235 3.42121 6.66212C3.85098 7.09189 4.43388 7.33333 5.04167 7.33333H7.79167C8.39945 7.33333 8.98235 7.09189 9.41212 6.66212C9.84189 6.23235 10.0833 5.64945 10.0833 5.04167C10.0833 4.43388 9.84189 3.85098 9.41212 3.42121C8.98235 2.99144 8.39945 2.75 7.79167 2.75ZM7.79167 6.41667H5.04167C4.67699 6.41667 4.32726 6.2718 4.06939 6.01394C3.81153 5.75608 3.66667 5.40634 3.66667 5.04167C3.66667 4.67699 3.81153 4.32726 4.06939 4.06939C4.32726 3.81153 4.67699 3.66667 5.04167 3.66667H7.79167C8.15634 3.66667 8.50608 3.81153 8.76394 4.06939C9.0218 4.32726 9.16667 4.67699 9.16667 5.04167C9.16667 5.40634 9.0218 5.75608 8.76394 6.01394C8.50608 6.2718 8.15634 6.41667 7.79167 6.41667ZM7.79167 9.16667H5.04167C4.43388 9.16667 3.85098 9.40811 3.42121 9.83788C2.99144 10.2677 2.75 10.8505 2.75 11.4583V16.9583C2.75 17.5661 2.99144 18.149 3.42121 18.5788C3.85098 19.0086 4.43388 19.25 5.04167 19.25H7.79167C8.39945 19.25 8.98235 19.0086 9.41212 18.5788C9.84189 18.149 10.0833 17.5661 10.0833 16.9583V11.4583C10.0833 10.8505 9.84189 10.2677 9.41212 9.83788C8.98235 9.40811 8.39945 9.16667 7.79167 9.16667ZM9.16667 16.9583C9.16667 17.323 9.0218 17.6727 8.76394 17.9306C8.50608 18.1885 8.15634 18.3333 7.79167 18.3333H5.04167C4.67699 18.3333 4.32726 18.1885 4.06939 17.9306C3.81153 17.6727 3.66667 17.323 3.66667 16.9583V11.4583C3.66667 11.0937 3.81153 10.7439 4.06939 10.4861C4.32726 10.2282 4.67699 10.0833 5.04167 10.0833H7.79167C8.15634 10.0833 8.50608 10.2282 8.76394 10.4861C9.0218 10.7439 9.16667 11.0937 9.16667 11.4583V16.9583ZM16.9583 14.6667H14.2083C13.6005 14.6667 13.0177 14.9081 12.5879 15.3379C12.1581 15.7677 11.9167 16.3505 11.9167 16.9583C11.9167 17.5661 12.1581 18.149 12.5879 18.5788C13.0177 19.0086 13.6005 19.25 14.2083 19.25H16.9583C17.5661 19.25 18.149 19.0086 18.5788 18.5788C19.0086 18.149 19.25 17.5661 19.25 16.9583C19.25 16.3505 19.0086 15.7677 18.5788 15.3379C18.149 14.9081 17.5661 14.6667 16.9583 14.6667ZM16.9583 18.3333H14.2083C13.8437 18.3333 13.4939 18.1885 13.2361 17.9306C12.9782 17.6727 12.8333 17.323 12.8333 16.9583C12.8333 16.5937 12.9782 16.2439 13.2361 15.9861C13.4939 15.7282 13.8437 15.5833 14.2083 15.5833H16.9583C17.323 15.5833 17.6727 15.7282 17.9306 15.9861C18.1885 16.2439 18.3333 16.5937 18.3333 16.9583C18.3333 17.323 18.1885 17.6727 17.9306 17.9306C17.6727 18.1885 17.323 18.3333 16.9583 18.3333ZM16.9583 2.75H14.2083C13.6005 2.75 13.0177 2.99144 12.5879 3.42121C12.1581 3.85098 11.9167 4.43388 11.9167 5.04167V10.5417C11.9167 11.1495 12.1581 11.7323 12.5879 12.1621C13.0177 12.5919 13.6005 12.8333 14.2083 12.8333H16.9583C17.5661 12.8333 18.149 12.5919 18.5788 12.1621C19.0086 11.7323 19.25 11.1495 19.25 10.5417V5.04167C19.25 4.43388 19.0086 3.85098 18.5788 3.42121C18.149 2.99144 17.5661 2.75 16.9583 2.75ZM18.3333 10.5417C18.3333 10.9063 18.1885 11.2561 17.9306 11.5139C17.6727 11.7718 17.323 11.9167 16.9583 11.9167H14.2083C13.8437 11.9167 13.4939 11.7718 13.2361 11.5139C12.9782 11.2561 12.8333 10.9063 12.8333 10.5417V5.04167C12.8333 4.67699 12.9782 4.32726 13.2361 4.06939C13.4939 3.81153 13.8437 3.66667 14.2083 3.66667H16.9583C17.323 3.66667 17.6727 3.81153 17.9306 4.06939C18.1885 4.32726 18.3333 4.67699 18.3333 5.04167V10.5417Z" fill="white"/>
</svg>
