<svg width="20" height="20" viewBox="0 0 20 20" fill="none" xmlns="http://www.w3.org/2000/svg">
<path d="M15.8333 10L12.5 6.66667M15.8333 10L12.5 13.3333M15.8333 10H7.49996M11.6666 17.5C10.6817 17.5 9.70644 17.306 8.7965 16.9291C7.88656 16.5522 7.05976 15.9997 6.36333 15.3033C5.66689 14.6069 5.11444 13.7801 4.73753 12.8701C4.36062 11.9602 4.16663 10.9849 4.16663 10C4.16663 9.01509 4.36062 8.03982 4.73753 7.12987C5.11444 6.21993 5.66689 5.39314 6.36333 4.6967C7.05976 4.00026 7.88656 3.44781 8.7965 3.0709C9.70644 2.69399 10.6817 2.5 11.6666 2.5" stroke="#B8B8B8" stroke-width="2" stroke-linecap="round" stroke-linejoin="round"/>
</svg>
