<svg width="19" height="16" viewBox="0 0 19 16" fill="none" xmlns="http://www.w3.org/2000/svg">
<path d="M18.2682 5.39157C17.906 6.14274 17.4408 6.54311 16.8841 6.58124C16.7582 6.58886 16.6362 6.57743 16.518 6.55073C16.2321 6.48973 15.9728 6.3372 15.7554 6.16562C15.6334 6.06648 15.5228 5.95972 15.4313 5.86058C15.0081 6.38677 14.5505 6.65369 14.0701 6.63081C13.5439 6.61174 13.1359 6.2762 12.8728 5.97115C12.4991 6.44397 12.0873 6.68419 11.6412 6.68419H11.6297C11.054 6.68038 10.6002 6.2762 10.3142 5.92921C9.96344 6.34102 9.56688 6.55836 9.1322 6.57361C8.52974 6.58886 8.04549 6.23425 7.72901 5.91777C7.3744 6.43253 6.9664 6.69944 6.50884 6.71851C5.90638 6.74901 5.41831 6.32577 5.10183 5.96353C4.78154 6.44016 4.40024 6.69563 3.96174 6.72995C3.92742 6.73376 3.89692 6.73376 3.8626 6.73376C3.19913 6.73376 2.63862 6.20756 2.33358 5.84914C2.29926 5.87202 2.26494 5.89871 2.22681 5.91777C1.98659 6.08173 1.72349 6.22663 1.46421 6.32195C1.09435 6.45541 0.724482 6.4821 0.427066 6.28001C-0.240213 5.82626 0.0572028 4.59465 0.122024 4.35062C0.137276 4.30105 0.160154 4.25529 0.194472 4.21335L1.21636 2.93599L1.48327 2.60044C1.61292 2.43267 1.85314 2.40598 2.02091 2.53943C2.18487 2.66908 2.21156 2.9093 2.07811 3.07326L1.96371 3.21815L0.838873 4.62516C0.732108 5.07509 0.739734 5.57079 0.857938 5.65086C0.857938 5.65467 1.13629 5.80338 2.18106 5.0179C2.26494 4.95689 2.37171 4.9302 2.47466 4.94926C2.57761 4.96452 2.66912 5.02552 2.72632 5.11322C2.88265 5.34963 3.43936 6.00928 3.90454 5.97115C4.25916 5.94065 4.53751 5.48309 4.70909 5.10178C4.76629 4.97214 4.89212 4.88826 5.0332 4.88063C5.18953 4.873 5.31155 4.94164 5.384 5.06747C5.52127 5.30006 6.01315 5.9559 6.46308 5.9559H6.47834C6.83676 5.94065 7.13799 5.47927 7.32864 5.09035C7.38583 4.96833 7.50785 4.88826 7.64131 4.88063C7.78239 4.873 7.90822 4.93401 7.98448 5.04459C8.13319 5.26193 8.61363 5.81101 9.08644 5.81101H9.10551C9.41055 5.79957 9.70415 5.55172 9.98632 5.06747C10.055 4.94926 10.1846 4.88826 10.3219 4.87682C10.4591 4.88063 10.585 4.95689 10.6498 5.07891C10.768 5.29625 11.2065 5.91777 11.6374 5.92159C11.8166 5.92159 11.9882 5.81101 12.1407 5.65467C12.2932 5.49453 12.4228 5.29244 12.5296 5.1056C12.5982 4.98358 12.7355 4.90732 12.869 4.91113C12.9373 4.912 13.0041 4.93122 13.0625 4.96677C13.1209 5.00232 13.1686 5.0529 13.2007 5.11322C13.2998 5.30388 13.685 5.85676 14.0968 5.8682H14.1082C14.4895 5.8682 14.8479 5.41064 15.0843 5.02934C15.153 4.91495 15.2712 4.84631 15.4046 4.84631H15.4084C15.5381 4.84631 15.6563 4.91113 15.7287 5.0179C15.8736 5.23524 16.3922 5.84914 16.8345 5.82245C17.109 5.80338 17.3378 5.50978 17.498 5.21999C17.1777 4.53746 16.6019 3.54607 16.152 3.21815C16.1253 3.19909 16.1024 3.18383 16.0757 3.16858C15.9882 3.11755 15.9244 3.03411 15.898 2.93634C15.8716 2.83857 15.8847 2.73433 15.9346 2.6462C16.0376 2.46317 16.2702 2.40216 16.457 2.50512C16.5218 2.54325 16.5829 2.58519 16.6477 2.63857C17.4446 3.26772 18.1843 4.87682 18.272 5.07128C18.3178 5.17423 18.314 5.29244 18.2682 5.39157Z" fill="#B8B8B8"/>
<path d="M16.5181 6.08559V14.459C16.5181 14.6725 16.3465 14.8403 16.1368 14.8403H13.3571C13.1474 14.8403 12.9758 14.6725 12.9758 14.459V9.1932H11.3248V14.459C11.3248 14.6725 11.1532 14.8403 10.9434 14.8403H1.84557C1.63586 14.8403 1.46427 14.6725 1.46427 14.459V5.87206C1.46427 5.66234 1.63586 5.49075 1.84557 5.49075C2.0591 5.49075 2.22688 5.66234 2.22688 5.87206V14.0777H10.5621V8.8119C10.5621 8.60218 10.7337 8.4306 10.9434 8.4306H13.3571C13.5706 8.4306 13.7384 8.60218 13.7384 8.8119V14.0777H15.7555V6.08559C15.7555 5.87587 15.9271 5.70428 16.1368 5.70428C16.3465 5.70428 16.5181 5.87587 16.5181 6.08559ZM16.2664 0H1.58247C1.37276 0 1.20117 0.171586 1.20117 0.381302V2.83689C1.20117 2.87121 1.20498 2.90552 1.21642 2.93603C1.25837 3.09999 1.40708 3.21819 1.58247 3.21819H16.2664C16.4761 3.21819 16.6477 3.04661 16.6477 2.83689V0.381302C16.6477 0.171586 16.4761 0 16.2664 0ZM15.8851 2.45559H1.96378V0.762605H15.8851V2.45559Z" fill="#B8B8B8"/>
<path d="M8.7623 8.20581H4.06465C3.85112 8.20581 3.68335 8.3774 3.68335 8.58711V12.4001C3.68335 12.6099 3.85112 12.7814 4.06465 12.7814H8.7623C8.97201 12.7814 9.1436 12.6099 9.1436 12.4001V8.58711C9.1436 8.3774 8.97201 8.20581 8.7623 8.20581ZM8.381 12.0188H4.44595V8.96842H8.381V12.0188Z" fill="#B8B8B8"/>
<path d="M0.383256 16.0001C0.282128 16.0001 0.185142 15.9599 0.113634 15.8884C0.0421259 15.8169 0.00195313 15.7199 0.00195312 15.6188V14.4604C0.00195312 14.3593 0.0421259 14.2623 0.113634 14.1908C0.185142 14.1193 0.282128 14.0791 0.383256 14.0791H1.84746C1.94858 14.0791 2.04557 14.1193 2.11708 14.1908C2.18859 14.2623 2.22876 14.3593 2.22876 14.4604C2.22876 14.5615 2.18859 14.6585 2.11708 14.73C2.04557 14.8015 1.94858 14.8417 1.84746 14.8417H0.764558V15.6188C0.764558 15.7199 0.724385 15.8169 0.652877 15.8884C0.581369 15.9599 0.484383 16.0001 0.383256 16.0001ZM17.548 16.0001C17.4468 16.0001 17.3499 15.9599 17.2783 15.8884C17.2068 15.8169 17.1667 15.7199 17.1667 15.6188V14.8417H16.1371C16.036 14.8417 15.939 14.8015 15.8675 14.73C15.796 14.6585 15.7558 14.5615 15.7558 14.4604C15.7558 14.3593 15.796 14.2623 15.8675 14.1908C15.939 14.1193 16.036 14.0791 16.1371 14.0791H17.548C17.6491 14.0791 17.7461 14.1193 17.8176 14.1908C17.8891 14.2623 17.9293 14.3593 17.9293 14.4604V15.6188C17.9293 15.7199 17.8891 15.8169 17.8176 15.8884C17.7461 15.9599 17.6491 16.0001 17.548 16.0001Z" fill="#B8B8B8"/>
</svg>
