<svg width="20" height="20" viewBox="0 0 20 20" fill="none" xmlns="http://www.w3.org/2000/svg">
<path d="M8.23701 12.3062C9.43415 12.2035 10.6378 12.2035 11.8349 12.3062C12.4896 12.3501 13.1398 12.4457 13.7796 12.5921C15.1634 12.8708 16.0665 13.4207 16.4452 14.2273C16.7478 14.8974 16.7398 15.6681 16.4234 16.3317C16.0374 17.1382 15.1343 17.6882 13.7286 17.9741C13.091 18.1177 12.4432 18.2108 11.7912 18.2528C11.0702 18.3334 10.4584 18.3334 9.89031 18.3334H9.66453C9.34269 18.2985 9.09872 18.025 9.09872 17.6992C9.09872 17.3733 9.34269 17.0998 9.66453 17.0649L10.1629 17.0648C10.6623 17.059 11.1649 17.0356 11.6674 16.9916C12.2603 16.9528 12.8494 16.8694 13.43 16.7423C14.4278 16.5223 15.0541 16.207 15.2508 15.7891C15.4038 15.4694 15.4038 15.0969 15.2508 14.7772C15.0541 14.3519 14.4278 14.022 13.4518 13.824C12.8623 13.6908 12.2632 13.605 11.6601 13.5674C10.5335 13.4647 9.40003 13.4647 8.27342 13.5674C7.67816 13.6062 7.08658 13.6895 6.50359 13.8167C5.50578 14.0366 4.88671 14.3519 4.68277 14.7699C4.61052 14.9286 4.57325 15.1012 4.57353 15.2758C4.57312 15.4528 4.61037 15.6278 4.68277 15.7891C5.02943 16.2657 5.55685 16.5763 6.13943 16.647L6.22394 16.6699C6.41561 16.7365 6.56606 16.8925 6.62467 17.0916C6.69165 17.3192 6.6276 17.5654 6.45842 17.7307C6.28924 17.896 6.04289 17.953 5.81896 17.8788C4.87998 17.7247 4.05643 17.1612 3.56844 16.339C3.25486 15.6731 3.25486 14.9006 3.56844 14.2346C3.95445 13.406 4.85757 12.8708 6.24868 12.5848C6.90363 12.4422 7.56826 12.349 8.23701 12.3062ZM8.30385 2.00609C9.96218 1.31536 11.8705 1.69874 13.1385 2.97737C14.4065 4.25599 14.7842 6.17786 14.0953 7.84624C13.4065 9.51462 11.7869 10.6007 9.99227 10.5977C7.54545 10.5937 5.56405 8.59563 5.56405 6.1323L5.56816 5.93944C5.64203 4.2104 6.70474 2.67215 8.30385 2.00609ZM9.99227 2.9427C9.15075 2.94076 8.34303 3.27595 7.74729 3.87432C7.15156 4.4727 6.81676 5.2851 6.81676 6.1323C6.81382 7.426 7.58564 8.59397 8.77201 9.0911C9.95837 9.58824 11.3254 9.31653 12.2351 8.4028C13.1448 7.48906 13.4178 6.11344 12.9267 4.91793C12.4357 3.72242 11.2773 2.9427 9.99227 2.9427Z" fill="#B8B8B8"/>
</svg>
