<svg width="11" height="16" viewBox="0 0 11 16" fill="none" xmlns="http://www.w3.org/2000/svg">
<path d="M9.5609 3.09937L9.54723 2.88946C9.54703 2.88559 9.54513 2.87442 9.54473 2.87042C9.50924 2.494 9.32717 2.14384 9.03431 1.88881C8.74145 1.63378 8.359 1.49231 7.96217 1.49224H5.02397L4.19063 0.114293C4.14333 0.0351191 4.05483 0.000198957 3.95903 0.000198957H2.98833C2.9547 -0.00112445 2.92115 0.00416539 2.88976 0.0157386C2.85837 0.0273118 2.82983 0.04492 2.8059 0.0674651C2.78198 0.0900102 2.76318 0.117008 2.7507 0.146776C2.73821 0.176544 2.7323 0.208442 2.73333 0.240482V1.53088C2.39063 1.58716 2.07707 1.74976 1.84146 1.99337C1.60585 2.23697 1.46141 2.54792 1.4306 2.87781C1.43023 2.88169 1.42703 2.88559 1.42683 2.88946L1.4083 3.10295C1.02175 3.14672 0.665295 3.32346 0.405955 3.59994C0.146615 3.87642 0.00225019 4.2336 0 4.60433V5.52902C0 5.6693 0.132233 5.7779 0.2795 5.7779H0.8775L1.3447 14.5683C1.36519 14.9553 1.54135 15.3199 1.83663 15.5865C2.13191 15.8531 2.52363 16.0012 2.9305 16H8.06937C8.47626 16.0012 8.868 15.8531 9.1633 15.5865C9.4586 15.3199 9.63478 14.9553 9.65527 14.5683L10.1225 5.7779H10.7205C10.8678 5.7779 11 5.6693 11 5.52902V4.60433C10.9981 4.22838 10.8499 3.86644 10.5841 3.58848C10.3183 3.31051 9.95376 3.13625 9.5609 3.09937ZM3.8041 0.508129L4.41 1.49224H3.26667V0.508129H3.8041ZM3.00577 2.00017H7.96217C8.22421 1.99941 8.47709 2.09191 8.67122 2.25953C8.86536 2.42715 8.98674 2.65779 9.01157 2.90622L9.02017 3.07952H1.94777L1.95633 2.90622C1.98116 2.65778 2.10255 2.42714 2.29669 2.25952C2.49083 2.0919 2.74372 1.99941 3.00577 2.00017ZM1.5191 7.80962H9.4809L9.24603 12.2223H1.75393L1.5191 7.80962ZM9.1226 14.542C9.10893 14.7989 8.99189 15.041 8.79576 15.2179C8.59963 15.3948 8.3395 15.493 8.06937 15.4921H2.93053C2.66041 15.493 2.40029 15.3948 2.20418 15.2179C2.00807 15.041 1.89103 14.7989 1.87737 14.542L1.78093 12.7302H9.21907L9.1226 14.542ZM9.50787 7.30169H1.49213L1.4115 5.7779H9.5885L9.50787 7.30169ZM10.4667 5.26997H0.533333V4.60433C0.536043 4.33549 0.649365 4.07838 0.848955 3.88824C1.04854 3.69811 1.31848 3.59011 1.60077 3.58745H9.39923C9.68152 3.59011 9.95146 3.69811 10.151 3.88824C10.3506 4.07838 10.464 4.33549 10.4667 4.60433V5.26997Z" fill="#252733"/>
<path d="M6.57017 8.70842C6.29171 8.32718 5.91191 8.11719 5.50077 8.11719C5.08964 8.11719 4.70984 8.32718 4.43137 8.70842C4.17341 9.06159 4.03137 9.52663 4.03137 10.0178C4.03137 10.509 4.17344 10.974 4.43137 11.3272C4.70984 11.7085 5.08964 11.9184 5.50077 11.9184C5.91191 11.9184 6.29171 11.7085 6.57017 11.3272C6.82814 10.974 6.97017 10.509 6.97017 10.0178C6.97017 9.52663 6.82814 9.06159 6.57017 8.70842ZM5.50077 11.4105C4.99334 11.4105 4.56467 10.7727 4.56467 10.0178C4.56467 9.26292 4.99334 8.62512 5.50077 8.62512C6.00821 8.62512 6.43687 9.26292 6.43687 10.0178C6.43687 10.7727 6.00821 11.4105 5.50077 11.4105Z" fill="#252733"/>
</svg>
