<svg width="16" height="14" viewBox="0 0 16 14" fill="none" xmlns="http://www.w3.org/2000/svg">
<path d="M14.9946 5.11776C14.6973 5.73358 14.3155 6.06181 13.8585 6.09307C13.7553 6.09932 13.6551 6.08994 13.5581 6.06806C13.3234 6.01805 13.1105 5.89301 12.9321 5.75234C12.832 5.67106 12.7412 5.58353 12.6661 5.50226C12.3187 5.93364 11.9431 6.15246 11.5488 6.13371C11.1169 6.11808 10.782 5.84299 10.566 5.59291C10.2593 5.98054 9.92132 6.17747 9.55514 6.17747H9.54575C9.07316 6.17435 8.70071 5.84299 8.46598 5.55853C8.17805 5.89613 7.85255 6.07431 7.49576 6.08682C7.00126 6.09932 6.60378 5.8086 6.34401 5.54915C6.05294 5.97116 5.71806 6.18998 5.34249 6.20561C4.84799 6.23061 4.44738 5.88363 4.18761 5.58666C3.92471 5.97741 3.61174 6.18685 3.25182 6.21498C3.22365 6.21811 3.19861 6.21811 3.17044 6.21811C2.62587 6.21811 2.16579 5.78672 1.91541 5.49288C1.88725 5.51164 1.85908 5.53352 1.82778 5.54915C1.63061 5.68357 1.41465 5.80235 1.20183 5.8805C0.898245 5.98991 0.594659 6.01179 0.350538 5.84612C-0.197168 5.47412 0.0469524 4.46443 0.100158 4.26436C0.112677 4.22373 0.131456 4.18621 0.159623 4.15183L0.998397 3.10462L1.21748 2.82953C1.32389 2.69199 1.52107 2.67011 1.65877 2.77952C1.79335 2.8858 1.81526 3.08274 1.70572 3.21716L1.61183 3.33594L0.688551 4.48944C0.600918 4.8583 0.607178 5.26468 0.7042 5.33033C0.7042 5.33345 0.932672 5.45537 1.79022 4.81141C1.85908 4.7614 1.94671 4.73952 2.03121 4.75515C2.11572 4.76765 2.19083 4.81767 2.23778 4.88956C2.3661 5.08337 2.82304 5.62417 3.20487 5.59291C3.49594 5.5679 3.72441 5.19278 3.86525 4.88018C3.91219 4.7739 4.01548 4.70513 4.13128 4.69888C4.2596 4.69263 4.35975 4.74889 4.41921 4.85205C4.53189 5.04274 4.93562 5.58041 5.30493 5.58041H5.31745C5.61165 5.5679 5.8589 5.18966 6.01539 4.87081C6.06233 4.77077 6.16249 4.70513 6.27203 4.69888C6.38783 4.69263 6.49111 4.74264 6.5537 4.8333C6.67577 5.01148 7.07011 5.46162 7.4582 5.46162H7.47385C7.72423 5.45224 7.96522 5.24905 8.19682 4.85205C8.25316 4.75515 8.35957 4.70513 8.47224 4.69575C8.58491 4.69888 8.6882 4.7614 8.7414 4.86143C8.83842 5.03961 9.19834 5.54915 9.55201 5.55227C9.6991 5.55227 9.83994 5.46162 9.96513 5.33345C10.0903 5.20216 10.1967 5.03648 10.2844 4.88331C10.3407 4.78328 10.4534 4.72076 10.5629 4.72389C10.619 4.7246 10.6739 4.74035 10.7218 4.7695C10.7697 4.79864 10.8088 4.84011 10.8352 4.88956C10.9166 5.04586 11.2327 5.49913 11.5707 5.50851H11.5801C11.8931 5.50851 12.1873 5.13339 12.3813 4.82079C12.4376 4.72701 12.5347 4.67074 12.6442 4.67074H12.6473C12.7537 4.67074 12.8508 4.72389 12.9102 4.81141C13.0292 4.98959 13.4548 5.49288 13.8179 5.471C14.0432 5.45537 14.231 5.21467 14.3624 4.97709C14.0995 4.41754 13.6269 3.60478 13.2576 3.33594C13.2357 3.32031 13.2169 3.30781 13.195 3.29531C13.1232 3.25347 13.0708 3.18507 13.0491 3.10491C13.0275 3.02475 13.0383 2.9393 13.0792 2.86704C13.1637 2.717 13.3547 2.66698 13.508 2.75138C13.5612 2.78264 13.6113 2.81703 13.6645 2.86079C14.3186 3.37658 14.9258 4.69575 14.9978 4.85518C15.0353 4.93958 15.0322 5.03648 14.9946 5.11776Z" fill="#252733"/>
<path d="M13.5583 5.6866V12.5513C13.5583 12.7263 13.4175 12.8639 13.2453 12.8639H10.9637C10.7916 12.8639 10.6508 12.7263 10.6508 12.5513V8.23428H9.29557V12.5513C9.29557 12.7263 9.15474 12.8639 8.9826 12.8639H1.51501C1.34288 12.8639 1.20204 12.7263 1.20204 12.5513V5.51154C1.20204 5.33961 1.34288 5.19894 1.51501 5.19894C1.69028 5.19894 1.82799 5.33961 1.82799 5.51154V12.2387H8.66962V7.92168C8.66962 7.74975 8.81046 7.60908 8.9826 7.60908H10.9637C11.139 7.60908 11.2767 7.74975 11.2767 7.92168V12.2387H12.9323V5.6866C12.9323 5.51467 13.0732 5.374 13.2453 5.374C13.4175 5.374 13.5583 5.51467 13.5583 5.6866ZM13.3517 0.69751H1.29906C1.12692 0.69751 0.986084 0.838179 0.986084 1.01011V3.02325C0.986084 3.05138 0.989214 3.07952 0.998603 3.10453C1.03303 3.23894 1.15509 3.33585 1.29906 3.33585H13.3517C13.5239 3.33585 13.6647 3.19518 13.6647 3.02325V1.01011C13.6647 0.838179 13.5239 0.69751 13.3517 0.69751ZM13.0388 2.71065H1.61203V1.32271H13.0388V2.71065Z" fill="#252733"/>
<path d="M7.19227 7.42456H3.33641C3.16115 7.42456 3.02344 7.56523 3.02344 7.73716V10.8632C3.02344 11.0351 3.16115 11.1758 3.33641 11.1758H7.19227C7.3644 11.1758 7.50524 11.0351 7.50524 10.8632V7.73716C7.50524 7.56523 7.3644 7.42456 7.19227 7.42456ZM6.87929 10.5506H3.64939V8.04976H6.87929V10.5506Z" fill="#252733"/>
<path d="M0.31444 13.8146C0.231434 13.8146 0.151827 13.7817 0.0931331 13.7231C0.0344389 13.6644 0.00146484 13.5849 0.00146484 13.502V12.5523C0.00146484 12.4694 0.0344389 12.3899 0.0931331 12.3313C0.151827 12.2727 0.231434 12.2397 0.31444 12.2397H1.51626C1.59927 12.2397 1.67888 12.2727 1.73757 12.3313C1.79627 12.3899 1.82924 12.4694 1.82924 12.5523C1.82924 12.6353 1.79627 12.7148 1.73757 12.7734C1.67888 12.832 1.59927 12.8649 1.51626 12.8649H0.627415V13.502C0.627415 13.5849 0.594441 13.6644 0.535747 13.7231C0.477053 13.7817 0.397446 13.8146 0.31444 13.8146ZM14.4033 13.8146C14.3203 13.8146 14.2407 13.7817 14.182 13.7231C14.1233 13.6644 14.0904 13.5849 14.0904 13.502V12.8649H13.2453C13.1623 12.8649 13.0827 12.832 13.024 12.7734C12.9653 12.7148 12.9323 12.6353 12.9323 12.5523C12.9323 12.4694 12.9653 12.3899 13.024 12.3313C13.0827 12.2727 13.1623 12.2397 13.2453 12.2397H14.4033C14.4863 12.2397 14.5659 12.2727 14.6246 12.3313C14.6833 12.3899 14.7163 12.4694 14.7163 12.5523V13.502C14.7163 13.5849 14.6833 13.6644 14.6246 13.7231C14.5659 13.7817 14.4863 13.8146 14.4033 13.8146Z" fill="#252733"/>
</svg>
